<svg width="440" height="224" viewBox="0 0 440 224" fill="none" xmlns="http://www.w3.org/2000/svg">
<circle cx="112" cy="112" r="112" fill="#EFC660"/>
<path d="M174.638 144.519V162H119.877V144.519H174.638ZM127.124 53.2266V162H104.712V53.2266H127.124ZM182.706 122.405V120.836C182.706 114.91 183.553 109.456 185.246 104.476C186.939 99.4453 189.405 95.0874 192.642 91.4019C195.879 87.7163 199.864 84.8525 204.595 82.8105C209.327 80.7188 214.755 79.6729 220.881 79.6729C227.007 79.6729 232.461 80.7188 237.242 82.8105C242.023 84.8525 246.033 87.7163 249.27 91.4019C252.557 95.0874 255.047 99.4453 256.741 104.476C258.434 109.456 259.281 114.91 259.281 120.836V122.405C259.281 128.282 258.434 133.736 256.741 138.766C255.047 143.747 252.557 148.104 249.27 151.84C246.033 155.525 242.048 158.389 237.317 160.431C232.585 162.473 227.157 163.494 221.031 163.494C214.905 163.494 209.451 162.473 204.67 160.431C199.938 158.389 195.929 155.525 192.642 151.84C189.405 148.104 186.939 143.747 185.246 138.766C183.553 133.736 182.706 128.282 182.706 122.405ZM204.222 120.836V122.405C204.222 125.792 204.521 128.955 205.118 131.893C205.716 134.832 206.662 137.421 207.957 139.663C209.302 141.854 211.045 143.572 213.187 144.817C215.328 146.062 217.943 146.685 221.031 146.685C224.019 146.685 226.584 146.062 228.726 144.817C230.867 143.572 232.585 141.854 233.88 139.663C235.175 137.421 236.122 134.832 236.719 131.893C237.367 128.955 237.69 125.792 237.69 122.405V120.836C237.69 117.549 237.367 114.461 236.719 111.573C236.122 108.634 235.15 106.044 233.806 103.803C232.511 101.512 230.792 99.7192 228.651 98.4243C226.509 97.1294 223.919 96.4819 220.881 96.4819C217.843 96.4819 215.253 97.1294 213.112 98.4243C211.02 99.7192 209.302 101.512 207.957 103.803C206.662 106.044 205.716 108.634 205.118 111.573C204.521 114.461 204.222 117.549 204.222 120.836ZM323.678 81.167H343.177V159.311C343.177 166.682 341.533 172.932 338.246 178.062C335.009 183.242 330.477 187.151 324.649 189.791C318.822 192.48 312.049 193.825 304.329 193.825C300.942 193.825 297.356 193.377 293.571 192.48C289.836 191.584 286.25 190.189 282.813 188.297C279.427 186.404 276.588 184.014 274.297 181.125L283.785 168.425C286.275 171.313 289.164 173.555 292.451 175.148C295.738 176.792 299.374 177.614 303.358 177.614C307.243 177.614 310.53 176.892 313.219 175.447C315.909 174.053 317.976 171.986 319.42 169.247C320.864 166.557 321.586 163.295 321.586 159.46V99.8438L323.678 81.167ZM269.292 122.555V120.986C269.292 114.81 270.039 109.207 271.533 104.177C273.077 99.0967 275.243 94.7388 278.032 91.103C280.871 87.4673 284.308 84.6533 288.342 82.6611C292.376 80.6689 296.933 79.6729 302.013 79.6729C307.392 79.6729 311.899 80.6689 315.535 82.6611C319.171 84.6533 322.159 87.4922 324.5 91.1777C326.841 94.8135 328.659 99.1216 329.954 104.102C331.298 109.033 332.344 114.437 333.091 120.313V123.75C332.344 129.378 331.224 134.607 329.729 139.438C328.235 144.27 326.268 148.503 323.828 152.139C321.387 155.725 318.349 158.514 314.713 160.506C311.127 162.498 306.844 163.494 301.864 163.494C296.883 163.494 292.376 162.473 288.342 160.431C284.357 158.389 280.946 155.525 278.107 151.84C275.268 148.154 273.077 143.821 271.533 138.841C270.039 133.86 269.292 128.432 269.292 122.555ZM290.807 120.986V122.555C290.807 125.892 291.131 129.004 291.778 131.893C292.426 134.782 293.422 137.347 294.767 139.588C296.161 141.779 297.879 143.498 299.921 144.743C302.013 145.938 304.479 146.536 307.317 146.536C311.252 146.536 314.464 145.714 316.955 144.07C319.445 142.377 321.312 140.061 322.558 137.123C323.803 134.184 324.525 130.797 324.724 126.962V117.176C324.625 114.038 324.201 111.224 323.454 108.734C322.707 106.194 321.661 104.027 320.316 102.234C318.972 100.441 317.229 99.0469 315.087 98.0508C312.945 97.0547 310.405 96.5566 307.467 96.5566C304.628 96.5566 302.163 97.2041 300.071 98.499C298.029 99.7441 296.311 101.462 294.916 103.654C293.571 105.845 292.55 108.435 291.853 111.423C291.156 114.362 290.807 117.549 290.807 120.986ZM356.475 122.405V120.836C356.475 114.91 357.321 109.456 359.015 104.476C360.708 99.4453 363.173 95.0874 366.411 91.4019C369.648 87.7163 373.632 84.8525 378.364 82.8105C383.095 80.7188 388.524 79.6729 394.65 79.6729C400.776 79.6729 406.229 80.7188 411.011 82.8105C415.792 84.8525 419.801 87.7163 423.039 91.4019C426.326 95.0874 428.816 99.4453 430.509 104.476C432.203 109.456 433.049 114.91 433.049 120.836V122.405C433.049 128.282 432.203 133.736 430.509 138.766C428.816 143.747 426.326 148.104 423.039 151.84C419.801 155.525 415.817 158.389 411.085 160.431C406.354 162.473 400.925 163.494 394.799 163.494C388.673 163.494 383.22 162.473 378.438 160.431C373.707 158.389 369.698 155.525 366.411 151.84C363.173 148.104 360.708 143.747 359.015 138.766C357.321 133.736 356.475 128.282 356.475 122.405ZM377.99 120.836V122.405C377.99 125.792 378.289 128.955 378.887 131.893C379.484 134.832 380.431 137.421 381.726 139.663C383.07 141.854 384.813 143.572 386.955 144.817C389.097 146.062 391.711 146.685 394.799 146.685C397.788 146.685 400.353 146.062 402.494 144.817C404.636 143.572 406.354 141.854 407.649 139.663C408.944 137.421 409.89 134.832 410.488 131.893C411.135 128.955 411.459 125.792 411.459 122.405V120.836C411.459 117.549 411.135 114.461 410.488 111.573C409.89 108.634 408.919 106.044 407.574 103.803C406.279 101.512 404.561 99.7192 402.419 98.4243C400.278 97.1294 397.688 96.4819 394.65 96.4819C391.612 96.4819 389.022 97.1294 386.88 98.4243C384.789 99.7192 383.07 101.512 381.726 103.803C380.431 106.044 379.484 108.634 378.887 111.573C378.289 114.461 377.99 117.549 377.99 120.836Z" fill="#ffffff"/>
</svg>
